<svg width="176" height="51" viewBox="0 0 176 51" fill="none" xmlns="http://www.w3.org/2000/svg">
<path d="M140.383 50.6899V12.2753H149.017L149.377 19.5683H149.809C150.912 16.8726 152.591 14.8748 154.846 13.5751C157.1 12.2272 159.619 11.5532 162.401 11.5532C164.32 11.5532 166.095 11.8661 167.725 12.4919C169.404 13.0696 170.844 14.0083 172.043 15.3081C173.29 16.5597 174.249 18.2204 174.921 20.2904C175.64 22.3122 176 24.7673 176 27.6556V50.6899H167.006V29.6052C167.006 27.1983 166.718 25.2246 166.142 23.6842C165.567 22.0956 164.679 20.9162 163.48 20.146C162.329 19.3758 160.818 18.9907 158.947 18.9907C156.932 18.9907 155.205 19.472 153.766 20.4348C152.375 21.3976 151.296 22.6733 150.528 24.2618C149.761 25.8504 149.377 27.6075 149.377 29.533V50.6899H140.383Z" fill="url(#paint0_linear_28_88)" style=""/>
<path d="M116.062 50.8342C118.94 50.8342 121.531 50.401 123.833 49.5345C126.136 48.6198 128.151 47.296 129.878 45.563C131.556 43.8301 132.852 41.736 133.763 39.281C134.627 36.8259 135.058 34.0579 135.058 30.9771C135.058 27.0297 134.315 23.5637 132.828 20.5791C131.293 17.5945 129.11 15.2598 126.28 13.575C123.45 11.8901 120.044 11.0477 116.062 11.0477C113.232 11.0477 110.666 11.505 108.363 12.4196C106.061 13.3343 104.094 14.6581 102.463 16.3911C100.784 18.1241 99.4889 20.2181 98.5774 22.6731C97.666 25.0801 97.2103 27.848 97.2103 30.9771C97.2103 34.8763 97.9778 38.3182 99.5128 41.3028C101 44.2874 103.159 46.6221 105.989 48.3069C108.771 49.9918 112.129 50.8342 116.062 50.8342ZM116.134 43.3968C114.168 43.3968 112.441 42.9395 110.954 42.0249C109.467 41.0621 108.315 39.6661 107.5 37.8368C106.684 35.9594 106.277 33.6728 106.277 30.9771C106.277 28.9552 106.516 27.1741 106.996 25.6337C107.428 24.0451 108.075 22.7213 108.939 21.6622C109.802 20.6032 110.834 19.8089 112.033 19.2794C113.232 18.7499 114.575 18.4851 116.062 18.4851C118.029 18.4851 119.78 18.9665 121.315 19.9293C122.802 20.8439 123.953 22.2399 124.769 24.1173C125.584 25.9466 125.992 28.2332 125.992 30.9771C125.992 32.9989 125.776 34.8041 125.344 36.3926C124.865 37.9331 124.193 39.2328 123.33 40.2919C122.466 41.3028 121.435 42.073 120.236 42.6025C118.988 43.132 117.621 43.3968 116.134 43.3968Z" fill="url(#paint1_linear_28_88)" style=""/>
<path d="M96.4342 49.7003C94.1317 50.5667 91.5413 51 88.6632 51C84.7297 51 81.3718 50.1576 78.5896 48.4727C75.7594 46.7879 73.6007 44.4532 72.1137 41.4686C70.5787 38.484 69.8112 35.0421 69.8112 31.1428C69.8112 28.0138 70.2669 25.2459 71.1783 22.8389C72.0897 20.3839 73.3849 18.2898 75.0638 16.5568C76.6948 14.8239 78.6615 13.5001 80.9641 12.5854C83.2666 11.6708 85.833 11.2135 88.6632 11.2135C92.6446 11.2135 96.0505 12.0559 98.8807 13.7407C98.9778 13.7986 99.0784 13.8613 99.1816 13.9283C99.14 13.9716 99.0985 14.0151 99.0573 14.0588C97.0137 16.1737 95.4697 18.6959 94.4021 21.5675C93.3091 24.4588 92.8045 27.6715 92.8045 31.1428C92.8045 35.5169 93.6667 39.5358 95.4972 43.1038C96.4795 45.0703 97.7141 46.8146 99.1932 48.3251C98.3247 48.8563 97.405 49.3146 96.4342 49.7003Z" fill="url(#paint2_linear_28_88)" style=""/>
<path d="M59.0779 50.1845C56.7274 50.1845 54.8806 49.8475 53.5375 49.1736C52.2423 48.4515 51.3309 47.4406 50.8032 46.1408C50.2755 44.8411 50.0117 43.2766 50.0117 41.4473V19.0629H42.9602V11.7699H50.0117V0.938703L58.934 0V11.7699H67.0649V19.0629H58.934V39.7865C58.934 40.99 59.1979 41.8084 59.7255 42.2416C60.2532 42.6267 61.0687 42.8193 62.172 42.8193H67.0649V50.1845H59.0779Z" fill="url(#paint3_linear_28_88)" style=""/>
<path d="M15.3982 50.8342C13.0957 50.8342 10.985 50.425 9.06624 49.6067C7.19543 48.7402 5.56446 47.4645 4.17335 45.7797C2.8302 44.0948 1.79886 42.0249 1.07931 39.5698C0.359771 37.0666 0 34.2023 0 30.9771C0 26.5964 0.623603 22.9379 1.87081 20.0015C3.16599 17.0169 4.96484 14.7784 7.26738 13.2861C9.61789 11.7938 12.3282 11.0477 15.3982 11.0477C17.5089 11.0477 19.3797 11.3847 21.0106 12.0586C22.6896 12.6844 24.1287 13.575 25.3279 14.7303C26.5271 15.8856 27.4386 17.2576 28.0622 18.8461H28.5658L28.9256 11.7698H37.5601V50.1843H28.5658V43.0358H28.0622C27.1507 45.3946 25.5917 47.296 23.3851 48.7402C21.1785 50.1362 18.5162 50.8342 15.3982 50.8342ZM18.7801 43.469C20.9387 43.469 22.7136 42.9636 24.1047 41.9526C25.5438 40.9417 26.6231 39.642 27.3426 38.0534C28.0622 36.4167 28.4219 34.7078 28.4219 32.9267V28.9552C28.4219 27.126 28.0622 25.4171 27.3426 23.8285C26.6231 22.1918 25.5438 20.892 24.1047 19.9293C22.7136 18.9183 20.9387 18.4129 18.7801 18.4129C16.8613 18.4129 15.1824 18.8702 13.7433 19.7848C12.3042 20.6995 11.1769 22.0955 10.3614 23.9729C9.54593 25.8022 9.13819 28.1369 9.13819 30.9771C9.13819 33.721 9.54593 36.0316 10.3614 37.909C11.1769 39.7864 12.3042 41.1824 13.7433 42.0971C15.1824 43.0117 16.8613 43.469 18.7801 43.469Z" fill="url(#paint4_linear_28_88)" style=""/>
<defs>
<linearGradient id="paint0_linear_28_88" x1="12.3527" y1="6.0958e-07" x2="160.891" y2="53.2771" gradientUnits="userSpaceOnUse">
<stop stop-color="#FFB383" style="stop-color:#FFB383;stop-color:color(display-p3 1.0000 0.7020 0.5137);stop-opacity:1;"/>
<stop offset="0.487388" stop-color="#DD96D6" style="stop-color:#DD96D6;stop-color:color(display-p3 0.8667 0.5882 0.8392);stop-opacity:1;"/>
<stop offset="1" stop-color="#9452FF" style="stop-color:#9452FF;stop-color:color(display-p3 0.5804 0.3216 1.0000);stop-opacity:1;"/>
</linearGradient>
<linearGradient id="paint1_linear_28_88" x1="12.3527" y1="6.0958e-07" x2="160.891" y2="53.2771" gradientUnits="userSpaceOnUse">
<stop stop-color="#FFB383" style="stop-color:#FFB383;stop-color:color(display-p3 1.0000 0.7020 0.5137);stop-opacity:1;"/>
<stop offset="0.487388" stop-color="#DD96D6" style="stop-color:#DD96D6;stop-color:color(display-p3 0.8667 0.5882 0.8392);stop-opacity:1;"/>
<stop offset="1" stop-color="#9452FF" style="stop-color:#9452FF;stop-color:color(display-p3 0.5804 0.3216 1.0000);stop-opacity:1;"/>
</linearGradient>
<linearGradient id="paint2_linear_28_88" x1="12.3527" y1="6.0958e-07" x2="160.891" y2="53.2771" gradientUnits="userSpaceOnUse">
<stop stop-color="#FFB383" style="stop-color:#FFB383;stop-color:color(display-p3 1.0000 0.7020 0.5137);stop-opacity:1;"/>
<stop offset="0.487388" stop-color="#DD96D6" style="stop-color:#DD96D6;stop-color:color(display-p3 0.8667 0.5882 0.8392);stop-opacity:1;"/>
<stop offset="1" stop-color="#9452FF" style="stop-color:#9452FF;stop-color:color(display-p3 0.5804 0.3216 1.0000);stop-opacity:1;"/>
</linearGradient>
<linearGradient id="paint3_linear_28_88" x1="12.3527" y1="6.0958e-07" x2="160.891" y2="53.2771" gradientUnits="userSpaceOnUse">
<stop stop-color="#FFB383" style="stop-color:#FFB383;stop-color:color(display-p3 1.0000 0.7020 0.5137);stop-opacity:1;"/>
<stop offset="0.487388" stop-color="#DD96D6" style="stop-color:#DD96D6;stop-color:color(display-p3 0.8667 0.5882 0.8392);stop-opacity:1;"/>
<stop offset="1" stop-color="#9452FF" style="stop-color:#9452FF;stop-color:color(display-p3 0.5804 0.3216 1.0000);stop-opacity:1;"/>
</linearGradient>
<linearGradient id="paint4_linear_28_88" x1="12.3527" y1="6.0958e-07" x2="160.891" y2="53.2771" gradientUnits="userSpaceOnUse">
<stop stop-color="#FFB383" style="stop-color:#FFB383;stop-color:color(display-p3 1.0000 0.7020 0.5137);stop-opacity:1;"/>
<stop offset="0.487388" stop-color="#DD96D6" style="stop-color:#DD96D6;stop-color:color(display-p3 0.8667 0.5882 0.8392);stop-opacity:1;"/>
<stop offset="1" stop-color="#9452FF" style="stop-color:#9452FF;stop-color:color(display-p3 0.5804 0.3216 1.0000);stop-opacity:1;"/>
</linearGradient>
</defs>
</svg>
